<svg width="184" height="184" viewBox="0 0 184 184" fill="none" xmlns="http://www.w3.org/2000/svg">
<rect x="-2.12402" y="92.8839" width="134.361" height="131.861" rx="6" transform="rotate(-45 -2.12402 92.8839)" fill="#80A6A6"/>
<path d="M143.125 85.875C143.125 89.5833 142.667 92.8958 141.75 95.8125C140.833 98.7292 139.583 101.312 138 103.562C136.458 105.771 134.667 107.667 132.625 109.25C130.583 110.833 128.438 112.125 126.188 113.125C123.979 114.125 121.729 114.854 119.438 115.312C117.188 115.771 115.062 116 113.062 116H76.3125V99.75H113.062C115.146 99.5833 117.021 99.1667 118.688 98.5C120.396 97.7917 121.854 96.8542 123.062 95.6875C124.271 94.5208 125.208 93.125 125.875 91.5C126.542 89.8333 126.875 87.9583 126.875 85.875V78.5C126.667 76.4583 126.229 74.5833 125.562 72.875C124.896 71.1667 123.979 69.7083 122.812 68.5C121.688 67.2917 120.312 66.3542 118.688 65.6875C117.062 64.9792 115.188 64.625 113.062 64.625H76.4375C74.2708 64.625 72.625 65.1875 71.5 66.3125C70.375 67.4375 69.8125 69.0625 69.8125 71.1875V138H53.5625V71.1875C53.5625 67.0208 54.3125 63.4792 55.8125 60.5625C57.3542 57.6458 59.25 55.2917 61.5 53.5C63.7917 51.7083 66.2708 50.4167 68.9375 49.625C71.6042 48.7917 74.0625 48.375 76.3125 48.375H113.062C116.729 48.375 120.021 48.8542 122.938 49.8125C125.854 50.7292 128.417 51.9792 130.625 53.5625C132.875 55.1042 134.771 56.8958 136.312 58.9375C137.896 60.9792 139.188 63.125 140.188 65.375C141.229 67.5833 141.979 69.8333 142.438 72.125C142.896 74.375 143.125 76.5 143.125 78.5V85.875Z" fill="#233A3A"/>
</svg>
