<svg width="435" height="183" viewBox="0 0 435 183" fill="none" xmlns="http://www.w3.org/2000/svg">
<path d="M90.2685 37L90.2685 146.091L46.8559 146.091C38.6173 146.091 31.5682 144.617 25.7089 141.67C19.8495 138.758 15.3751 134.621 12.2856 129.259C9.16058 123.896 7.59808 117.575 7.59808 110.295C7.59808 103.016 9.17833 96.7479 12.3388 91.4922C15.4994 86.272 20.0626 82.277 26.0285 79.5071C31.9589 76.7727 39.1144 75.4055 47.4951 75.4055L76.206 75.4055V94.4219L51.4369 94.4219C47.14 94.4219 43.5533 95.0078 40.6769 96.1797C37.8005 97.3516 35.6521 99.1094 34.2316 101.453C32.7756 103.832 32.0476 106.78 32.0476 110.295C32.0476 113.882 32.7756 116.883 34.2316 119.298C35.6876 121.748 37.8538 123.594 40.7302 124.837C43.5711 126.116 47.1755 126.755 51.5434 126.755L66.5647 126.755L66.5647 37H90.2685ZM30.8758 86.6982L3.76285 37H29.8637L56.444 86.6982H30.8758Z" fill="#E5E5E5"/>
<path d="M66.5585 146V36.9091H110.557C118.618 36.9091 125.348 38.0987 130.745 40.478C136.143 42.8572 140.191 46.142 142.89 50.3324C145.625 54.5227 146.992 59.3523 146.992 64.821C146.992 69.0469 146.122 72.7756 144.382 76.0071C142.677 79.2031 140.333 81.831 137.35 83.8906C134.367 85.9503 130.958 87.4062 127.123 88.2585V89.3239C131.349 89.5369 135.291 90.7266 138.948 92.8928C142.606 95.0589 145.571 98.0774 147.844 101.948C150.117 105.819 151.253 110.435 151.253 115.798C151.253 121.586 149.815 126.753 146.938 131.298C144.062 135.844 139.818 139.43 134.208 142.058C128.632 144.686 121.761 146 113.593 146H66.5585ZM90.2623 126.664H108.533C114.818 126.664 119.417 125.457 122.329 123.042C125.241 120.627 126.697 117.396 126.697 113.347C126.697 110.364 125.969 107.754 124.513 105.517C123.093 103.244 121.068 101.469 118.441 100.19C115.813 98.9119 112.688 98.2727 109.066 98.2727H90.2623V126.664ZM90.2623 82.3991H106.828C109.918 82.3991 112.67 81.8665 115.085 80.8011C117.535 79.7003 119.453 78.1555 120.838 76.1669C122.258 74.1428 122.968 71.7102 122.968 68.8693C122.968 64.9986 121.583 61.8913 118.813 59.5476C116.079 57.1683 112.226 55.9787 107.255 55.9787H90.2623V82.3991ZM208.869 116.182V76.1818H228.824V146H209.687V133.273H208.96C207.415 137.394 204.808 140.697 201.142 143.182C197.475 145.667 193.021 146.909 187.778 146.909C183.081 146.909 178.945 145.848 175.369 143.727C171.824 141.606 169.051 138.591 167.051 134.682C165.081 130.742 164.081 126.076 164.051 120.682V76.1818H184.005V117.045C184.005 121.076 185.081 124.273 187.233 126.636C189.384 128.97 192.263 130.136 195.869 130.136C198.172 130.136 200.308 129.606 202.278 128.545C204.278 127.485 205.884 125.924 207.096 123.864C208.308 121.773 208.899 119.212 208.869 116.182ZM244.051 146V76.1818H263.051V88.5909H263.824C265.278 84.4697 267.718 81.2273 271.142 78.8636C274.566 76.4697 278.642 75.2727 283.369 75.2727C288.187 75.2727 292.278 76.4848 295.642 78.9091C299.005 81.303 301.233 84.5303 302.324 88.5909H303.051C304.445 84.5606 307.021 81.3333 310.778 78.9091C314.536 76.4848 318.975 75.2727 324.096 75.2727C330.611 75.2727 335.915 77.3485 340.005 81.5C344.127 85.6515 346.187 91.5 346.187 99.0455V146H326.278V103.091C326.278 99.303 325.263 96.4545 323.233 94.5455C321.233 92.6061 318.718 91.6364 315.687 91.6364C312.263 91.6364 309.581 92.7273 307.642 94.9091C305.733 97.0909 304.778 99.9848 304.778 103.591V146H285.46V102.727C285.46 99.3333 284.505 96.6364 282.596 94.6364C280.687 92.6364 278.172 91.6364 275.051 91.6364C272.93 91.6364 271.036 92.1667 269.369 93.2273C267.702 94.2576 266.384 95.7121 265.415 97.5909C264.475 99.4697 264.005 101.682 264.005 104.227V146H244.051ZM361.176 172.182V76.1818H380.858V87.9545H381.676C382.524 86.0151 383.767 84.0758 385.403 82.1364C387.04 80.1667 389.161 78.5303 391.767 77.2273C394.403 75.9242 397.646 75.2727 401.494 75.2727C406.555 75.2727 411.221 76.5909 415.494 79.2273C419.797 81.8636 423.236 85.8333 425.812 91.1364C428.388 96.4394 429.676 103.106 429.676 111.136C429.676 118.985 428.418 125.576 425.903 130.909C423.418 136.242 420.04 140.273 415.767 143C411.494 145.727 406.721 147.091 401.449 147.091C397.752 147.091 394.585 146.485 391.949 145.273C389.343 144.03 387.206 142.47 385.54 140.591C383.873 138.712 382.585 136.788 381.676 134.818H381.13V172.182H361.176ZM380.676 111.091C380.676 115.152 381.236 118.697 382.358 121.727C383.509 124.758 385.146 127.121 387.267 128.818C389.388 130.485 391.964 131.318 394.994 131.318C398.085 131.318 400.691 130.47 402.812 128.773C404.933 127.045 406.54 124.667 407.63 121.636C408.752 118.606 409.312 115.091 409.312 111.091C409.312 107.121 408.767 103.636 407.676 100.636C406.585 97.6061 404.979 95.2576 402.858 93.5909C400.736 91.9242 398.115 91.0909 394.994 91.0909C391.964 91.0909 389.373 91.9091 387.221 93.5455C385.1 95.1818 383.479 97.5 382.358 100.5C381.236 103.47 380.676 107 380.676 111.091Z" fill="#CCA43B"/>
</svg>
